<svg width="289" height="152" viewBox="0 0 289 152" fill="none" xmlns="http://www.w3.org/2000/svg">
<path d="M68.5 21V0H90V21H68.5Z" fill="#151515"/>
<path d="M100.5 21V0H139C150.667 0 174.1 8 174.5 40C174.9 72 151 76.6667 139 75H100.5V53H139C143.833 54.5 153.8 54 155 40C156.2 26 144.833 21.5 139 21H100.5Z" fill="#151515"/>
<path d="M90 75V53H68.5V75H90Z" fill="#151515"/>
<path d="M90 81.5H68.5V151H90V81.5Z" fill="#151515"/>
<path d="M156 151.5V87H175V109H192V87H212.5V151.5H192V122.5H175V151.5H156Z" fill="#151515"/>
<path d="M256 112.5L231.5 87H250.5L263 99L268.5 87H288.5L256 151.5H238L256 112.5Z" fill="#151515"/>
<path d="M18.6501 125.5C18.6501 132.228 19.5412 138.298 20.9686 142.669C21.6831 144.857 22.5232 146.592 23.4319 147.769C24.346 148.953 25.2689 149.5 26.1501 149.5C27.0313 149.5 27.9542 148.953 28.8683 147.769C29.7771 146.592 30.6171 144.857 31.3317 142.669C32.759 138.298 33.6501 132.228 33.6501 125.5C33.6501 118.772 32.759 112.702 31.3317 108.331C30.6171 106.143 29.7771 104.408 28.8683 103.231C27.9542 102.047 27.0313 101.5 26.1501 101.5C25.2689 101.5 24.346 102.047 23.4319 103.231C22.5232 104.408 21.6831 106.143 20.9686 108.331C19.5412 112.702 18.6501 118.772 18.6501 125.5Z" stroke="black"/>
<path d="M25.1246 132.816C31.6958 133.293 37.687 132.815 42.056 131.672C44.243 131.1 45.9955 130.369 47.2088 129.528C48.4268 128.683 49.0341 127.779 49.0974 126.869C49.1608 125.958 48.6847 124.975 47.5957 123.964C46.5111 122.956 44.8774 121.979 42.7915 121.098C38.6245 119.336 32.7594 118 26.1882 117.524C19.6169 117.047 13.6257 117.525 9.25674 118.668C7.06972 119.24 5.31718 119.971 4.10393 120.812C2.88589 121.657 2.27864 122.561 2.2153 123.471C2.15197 124.382 2.62801 125.365 3.71698 126.376C4.80166 127.384 6.43537 128.361 8.52127 129.242C12.6882 131.004 18.5533 132.34 25.1246 132.816Z" stroke="black"/>
<path d="M21.4777 132.397C27.3108 135.523 32.9874 137.538 37.4394 138.28C39.668 138.651 41.5614 138.698 43.0036 138.424C44.452 138.149 45.3617 137.57 45.7763 136.764C46.1908 135.958 46.1417 134.865 45.5412 133.491C44.9432 132.124 43.8302 130.56 42.2655 128.898C39.1398 125.578 34.2914 121.953 28.4583 118.827C22.6252 115.701 16.9486 113.685 12.4966 112.944C10.2679 112.573 8.37457 112.525 6.93241 112.799C5.48401 113.074 4.57426 113.654 4.15973 114.46C3.74521 115.266 3.79429 116.359 4.39483 117.732C4.99279 119.099 6.10579 120.664 7.6705 122.325C10.7962 125.645 15.6445 129.271 21.4777 132.397Z" stroke="black"/>
<path d="M19.2426 122.223C16.0429 127.982 13.9349 133.611 13.1036 138.045C12.6874 140.264 12.5966 142.156 12.8308 143.604C13.066 145.059 13.6119 145.977 14.3862 146.408C15.1604 146.838 16.2289 146.816 17.5884 146.247C18.9413 145.681 20.4995 144.605 22.1642 143.079C25.4897 140.03 29.1552 135.267 32.3549 129.507C35.5547 123.748 37.6626 118.119 38.4939 113.685C38.9101 111.465 39.0009 109.574 38.7668 108.126C38.5315 106.671 37.9856 105.752 37.2114 105.322C36.4371 104.892 35.3687 104.914 34.0091 105.483C32.6562 106.049 31.098 107.125 29.4333 108.651C26.1078 111.7 22.4423 116.463 19.2426 122.223Z" stroke="black"/>
<path d="M18.6192 130.123C22.4814 135.573 26.6879 139.957 30.3532 142.643C32.188 143.988 33.864 144.891 35.2756 145.3C36.6945 145.712 37.7588 145.605 38.4765 145.075C39.1943 144.545 39.6275 143.547 39.6883 142.042C39.7487 140.545 39.4334 138.638 38.7561 136.439C37.4032 132.045 34.6405 126.595 30.7783 121.145C26.9162 115.696 22.7096 111.312 19.0444 108.625C17.2095 107.28 15.5336 106.378 14.1219 105.968C12.703 105.556 11.6388 105.664 10.921 106.194C10.2033 106.724 9.77 107.722 9.70928 109.226C9.64887 110.723 9.96411 112.63 10.6414 114.83C11.9943 119.224 14.757 124.674 18.6192 130.123Z" stroke="black"/>
<path d="M22.0373 118.094C16.087 120.981 11.1013 124.406 7.84867 127.596C6.22045 129.193 5.0474 130.711 4.39664 132.053C3.7431 133.4 3.65127 134.491 4.03422 135.314C4.41718 136.136 5.30388 136.752 6.74027 137.086C8.17057 137.418 10.0642 137.448 12.3055 137.167C16.7828 136.607 22.5334 134.824 28.4837 131.937C34.434 129.051 39.4197 125.625 42.6723 122.435C44.3005 120.838 45.4735 119.32 46.1243 117.978C46.7778 116.631 46.8697 115.54 46.4867 114.718C46.1038 113.895 45.2171 113.279 43.7807 112.945C42.3504 112.613 40.4567 112.583 38.2155 112.864C33.7382 113.424 27.9876 115.207 22.0373 118.094Z" stroke="black"/>
<ellipse cx="25.1501" cy="125" rx="1" ry="3" fill="black"/>
<circle cx="25" cy="125" r="3" fill="#1DA5C4"/>
</svg>
