<svg width="287" height="153" viewBox="0 0 287 153" fill="none" xmlns="http://www.w3.org/2000/svg">
<path d="M65.5 22V1H87V22H65.5Z" fill="#BBC1CB "/>
<path d="M97.5 22V1H136C147.667 1 171.1 9 171.5 41C171.9 73 148 77.6667 136 76H97.5V54H136C140.833 55.5 150.8 55 152 41C153.2 27 141.833 22.5 136 22H97.5Z" fill="#8B0615"/>
<path d="M87 76V54H65.5V76H87Z" fill="#BBC1CB"/>
<path d="M87 82.5H65.5V152H87V82.5Z" fill="#151515"/>
<path d="M65.5 22V1H87V22H65.5Z" stroke="black"/>
<path d="M97.5 22V1H136C147.667 1 171.1 9 171.5 41C171.9 73 148 77.6667 136 76H97.5V54H136C140.833 55.5 150.8 55 152 41C153.2 27 141.833 22.5 136 22H97.5Z" stroke="black"/>
<path d="M87 76V54H65.5V76H87Z" stroke="black"/>
<path d="M87 82.5H65.5V152H87V82.5Z" stroke="white"/>
<path d="M153 152.5V88H172V110H189V88H209.5V152.5H189V123.5H172V152.5H153Z" fill="black"/>
<path d="M253 113.5L228.5 88H247.5L260 100L265.5 88H285.5L253 152.5H235L253 113.5Z" fill="#151515"/>
<path d="M153 152.5V88H172V110H189V88H209.5V152.5H189V123.5H172V152.5H153Z" stroke="black"/>
<path d="M253 113.5L228.5 88H247.5L260 100L265.5 88H285.5L253 152.5H235L253 113.5Z" stroke="black"/>
<path d="M18.6501 87.5C18.6501 94.2276 19.5412 100.298 20.9686 104.669C21.6831 106.857 22.5232 108.592 23.4319 109.769C24.346 110.953 25.2689 111.5 26.1501 111.5C27.0313 111.5 27.9542 110.953 28.8683 109.769C29.7771 108.592 30.6171 106.857 31.3317 104.669C32.759 100.298 33.6501 94.2276 33.6501 87.5C33.6501 80.7724 32.759 74.7023 31.3317 70.3311C30.6171 68.1428 29.7771 66.408 28.8683 65.2309C27.9542 64.0469 27.0313 63.5 26.1501 63.5C25.2689 63.5 24.346 64.0469 23.4319 65.2309C22.5232 66.408 21.6831 68.1428 20.9686 70.3311C19.5412 74.7023 18.6501 80.7724 18.6501 87.5Z" stroke="black"/>
<path d="M18.6501 87.5C18.6501 94.2276 19.5412 100.298 20.9686 104.669C21.6831 106.857 22.5232 108.592 23.4319 109.769C24.346 110.953 25.2689 111.5 26.1501 111.5C27.0313 111.5 27.9542 110.953 28.8683 109.769C29.7771 108.592 30.6171 106.857 31.3317 104.669C32.759 100.298 33.6501 94.2276 33.6501 87.5C33.6501 80.7724 32.759 74.7023 31.3317 70.3311C30.6171 68.1428 29.7771 66.408 28.8683 65.2309C27.9542 64.0469 27.0313 63.5 26.1501 63.5C25.2689 63.5 24.346 64.0469 23.4319 65.2309C22.5232 66.408 21.6831 68.1428 20.9686 70.3311C19.5412 74.7023 18.6501 80.7724 18.6501 87.5Z" stroke="black"/>
<path d="M25.1246 94.8164C31.6958 95.2926 37.687 94.8152 42.056 93.6723C44.243 93.1002 45.9955 92.3685 47.2088 91.5275C48.4268 90.6832 49.0341 89.7792 49.0974 88.8686C49.1608 87.9579 48.6847 86.9754 47.5957 85.9639C46.5111 84.9564 44.8774 83.9794 42.7915 83.0977C38.6245 81.3363 32.7594 79.9997 26.1882 79.5235C19.6169 79.0474 13.6257 79.5248 9.25674 80.6677C7.06972 81.2398 5.31718 81.9714 4.10393 82.8124C2.88589 83.6568 2.27864 84.5608 2.2153 85.4714C2.15197 86.3821 2.62801 87.3646 3.71698 88.3761C4.80166 89.3836 6.43537 90.3606 8.52127 91.2423C12.6882 93.0037 18.5533 94.3403 25.1246 94.8164Z" stroke="black"/>
<path d="M25.1246 94.8164C31.6958 95.2926 37.687 94.8152 42.056 93.6723C44.243 93.1002 45.9955 92.3685 47.2088 91.5275C48.4268 90.6832 49.0341 89.7792 49.0974 88.8686C49.1608 87.9579 48.6847 86.9754 47.5957 85.9639C46.5111 84.9564 44.8774 83.9794 42.7915 83.0977C38.6245 81.3363 32.7594 79.9997 26.1882 79.5235C19.6169 79.0474 13.6257 79.5248 9.25674 80.6677C7.06972 81.2398 5.31718 81.9714 4.10393 82.8124C2.88589 83.6568 2.27864 84.5608 2.2153 85.4714C2.15197 86.3821 2.62801 87.3646 3.71698 88.3761C4.80166 89.3836 6.43537 90.3606 8.52127 91.2423C12.6882 93.0037 18.5533 94.3403 25.1246 94.8164Z" stroke="black"/>
<path d="M21.4777 94.397C27.3108 97.5232 32.9874 99.5385 37.4394 100.28C39.668 100.651 41.5614 100.698 43.0036 100.424C44.452 100.149 45.3617 99.5698 45.7763 98.7639C46.1908 97.9581 46.1417 96.8646 45.5412 95.4914C44.9432 94.1242 43.8302 92.5601 42.2655 90.8982C39.1398 87.5785 34.2914 83.953 28.4583 80.8267C22.6252 77.7005 16.9486 75.6852 12.4966 74.9437C10.2679 74.5725 8.37457 74.5254 6.93241 74.7993C5.48401 75.0743 4.57426 75.6539 4.15973 76.4598C3.74521 77.2656 3.79429 78.3591 4.39483 79.7322C4.99279 81.0995 6.10579 82.6636 7.6705 84.3255C10.7962 87.6452 15.6445 91.2707 21.4777 94.397Z" stroke="black"/>
<path d="M21.4777 94.397C27.3108 97.5232 32.9874 99.5385 37.4394 100.28C39.668 100.651 41.5614 100.698 43.0036 100.424C44.452 100.149 45.3617 99.5698 45.7763 98.7639C46.1908 97.9581 46.1417 96.8646 45.5412 95.4914C44.9432 94.1242 43.8302 92.5601 42.2655 90.8982C39.1398 87.5785 34.2914 83.953 28.4583 80.8267C22.6252 77.7005 16.9486 75.6852 12.4966 74.9437C10.2679 74.5725 8.37457 74.5254 6.93241 74.7993C5.48401 75.0743 4.57426 75.6539 4.15973 76.4598C3.74521 77.2656 3.79429 78.3591 4.39483 79.7322C4.99279 81.0995 6.10579 82.6636 7.6705 84.3255C10.7962 87.6452 15.6445 91.2707 21.4777 94.397Z" stroke="black"/>
<path d="M19.2426 84.2226C16.0429 89.9821 13.9349 95.6109 13.1036 100.045C12.6874 102.264 12.5966 104.156 12.8308 105.604C13.066 107.059 13.6119 107.977 14.3862 108.408C15.1604 108.838 16.2289 108.816 17.5884 108.247C18.9413 107.681 20.4995 106.605 22.1642 105.079C25.4897 102.03 29.1552 97.2667 32.3549 91.5072C35.5547 85.7477 37.6626 80.119 38.4939 75.6851C38.9101 73.4654 39.0009 71.5737 38.7668 70.1259C38.5315 68.6711 37.9856 67.7524 37.2114 67.3222C36.4371 66.8921 35.3687 66.914 34.0091 67.4828C32.6562 68.0489 31.098 69.1253 29.4333 70.6514C26.1078 73.6997 22.4423 78.4631 19.2426 84.2226Z" stroke="black"/>
<path d="M19.2426 84.2226C16.0429 89.9821 13.9349 95.6109 13.1036 100.045C12.6874 102.264 12.5966 104.156 12.8308 105.604C13.066 107.059 13.6119 107.977 14.3862 108.408C15.1604 108.838 16.2289 108.816 17.5884 108.247C18.9413 107.681 20.4995 106.605 22.1642 105.079C25.4897 102.03 29.1552 97.2667 32.3549 91.5072C35.5547 85.7477 37.6626 80.119 38.4939 75.6851C38.9101 73.4654 39.0009 71.5737 38.7668 70.1259C38.5315 68.6711 37.9856 67.7524 37.2114 67.3222C36.4371 66.8921 35.3687 66.914 34.0091 67.4828C32.6562 68.0489 31.098 69.1253 29.4333 70.6514C26.1078 73.6997 22.4423 78.4631 19.2426 84.2226Z" stroke="black"/>
<path d="M18.6192 92.1234C22.4814 97.573 26.6879 101.957 30.3532 104.643C32.188 105.988 33.864 106.891 35.2756 107.3C36.6945 107.712 37.7588 107.605 38.4765 107.075C39.1943 106.545 39.6275 105.547 39.6883 104.042C39.7487 102.545 39.4334 100.638 38.7561 98.4386C37.4032 94.0446 34.6405 88.5948 30.7783 83.1453C26.9162 77.6957 22.7096 73.3121 19.0444 70.6254C17.2095 69.2805 15.5336 68.3781 14.1219 67.9682C12.703 67.5563 11.6388 67.664 10.921 68.194C10.2033 68.724 9.77 69.722 9.70928 71.2265C9.64887 72.7233 9.96411 74.6304 10.6414 76.8301C11.9943 81.2241 14.757 86.6739 18.6192 92.1234Z" stroke="black"/>
<path d="M18.6192 92.1234C22.4814 97.573 26.6879 101.957 30.3532 104.643C32.188 105.988 33.864 106.891 35.2756 107.3C36.6945 107.712 37.7588 107.605 38.4765 107.075C39.1943 106.545 39.6275 105.547 39.6883 104.042C39.7487 102.545 39.4334 100.638 38.7561 98.4386C37.4032 94.0446 34.6405 88.5948 30.7783 83.1453C26.9162 77.6957 22.7096 73.3121 19.0444 70.6254C17.2095 69.2805 15.5336 68.3781 14.1219 67.9682C12.703 67.5563 11.6388 67.664 10.921 68.194C10.2033 68.724 9.77 69.722 9.70928 71.2265C9.64887 72.7233 9.96411 74.6304 10.6414 76.8301C11.9943 81.2241 14.757 86.6739 18.6192 92.1234Z" stroke="black"/>
<path d="M22.0373 80.0938C16.087 82.9806 11.1013 86.4062 7.84867 89.5963C6.22045 91.1932 5.0474 92.7109 4.39664 94.0527C3.7431 95.4002 3.65127 96.4911 4.03422 97.3135C4.41718 98.1359 5.30388 98.752 6.74027 99.0856C8.17057 99.4178 10.0642 99.4477 12.3055 99.1673C16.7828 98.6072 22.5334 96.8241 28.4837 93.9373C34.434 91.0505 39.4197 87.6249 42.6723 84.4348C44.3005 82.8379 45.4735 81.3202 46.1243 79.9784C46.7778 78.6309 46.8697 77.54 46.4867 76.7176C46.1038 75.8952 45.2171 75.2791 43.7807 74.9455C42.3504 74.6132 40.4567 74.5834 38.2155 74.8638C33.7382 75.4239 27.9876 77.207 22.0373 80.0938Z" stroke="black"/>
<path d="M22.0373 80.0938C16.087 82.9806 11.1013 86.4062 7.84867 89.5963C6.22045 91.1932 5.0474 92.7109 4.39664 94.0527C3.7431 95.4002 3.65127 96.4911 4.03422 97.3135C4.41718 98.1359 5.30388 98.752 6.74027 99.0856C8.17057 99.4178 10.0642 99.4477 12.3055 99.1673C16.7828 98.6072 22.5334 96.8241 28.4837 93.9373C34.434 91.0505 39.4197 87.6249 42.6723 84.4348C44.3005 82.8379 45.4735 81.3202 46.1243 79.9784C46.7778 78.6309 46.8697 77.54 46.4867 76.7176C46.1038 75.8952 45.2171 75.2791 43.7807 74.9455C42.3504 74.6132 40.4567 74.5834 38.2155 74.8638C33.7382 75.4239 27.9876 77.207 22.0373 80.0938Z" stroke="black"/>
<ellipse cx="25.1501" cy="87" rx="1" ry="3" fill="black"/>
</svg>
